<svg width="60" height="60" viewBox="0 0 60 60" fill="none" xmlns="http://www.w3.org/2000/svg">
<path d="M21.7238 45.2599C21.7238 45.4667 21.4919 45.6321 21.1996 45.6321C20.8669 45.6631 20.6351 45.4977 20.6351 45.2599C20.6351 45.0531 20.8669 44.8877 21.1593 44.8877C21.4617 44.8567 21.7238 45.0221 21.7238 45.2599ZM18.5887 44.7947C18.5181 45.0014 18.7198 45.2392 19.0222 45.3013C19.2843 45.4047 19.5867 45.3013 19.6472 45.0945C19.7077 44.8877 19.5161 44.6499 19.2137 44.5569C18.9516 44.4845 18.6593 44.5879 18.5887 44.7947ZM23.0444 44.6189C22.752 44.6913 22.5504 44.8877 22.5806 45.1255C22.6109 45.3323 22.873 45.4667 23.1754 45.3943C23.4677 45.322 23.6694 45.1255 23.6391 44.9187C23.6089 44.7223 23.3367 44.5879 23.0444 44.6189ZM29.6774 5C15.6956 5 5 15.8869 5 30.2271C5 41.693 12.0363 51.5047 22.0867 54.9579C23.377 55.1957 23.8306 54.3789 23.8306 53.7069C23.8306 53.0658 23.8004 49.5299 23.8004 47.3587C23.8004 47.3587 16.744 48.9096 15.2621 44.2777C15.2621 44.2777 14.1129 41.2691 12.4597 40.4937C12.4597 40.4937 10.1512 38.8704 12.621 38.9015C12.621 38.9015 15.131 39.1082 16.5121 41.5689C18.7198 45.5598 22.4194 44.4121 23.8609 43.7298C24.0927 42.0755 24.748 40.9279 25.4738 40.2455C19.8387 39.6045 14.1532 38.7671 14.1532 28.821C14.1532 25.9778 14.9194 24.551 16.5323 22.7313C16.2702 22.0593 15.4133 19.2884 16.7944 15.7112C18.9012 15.0391 23.75 18.5027 23.75 18.5027C25.7661 17.9237 27.9335 17.6239 30.0806 17.6239C32.2278 17.6239 34.3952 17.9237 36.4113 18.5027C36.4113 18.5027 41.2601 15.0288 43.3669 15.7112C44.748 19.2988 43.8911 22.0593 43.629 22.7313C45.2419 24.5613 46.2298 25.9881 46.2298 28.821C46.2298 38.7981 40.2923 39.5942 34.6573 40.2455C35.5847 41.0623 36.371 42.6131 36.371 45.0428C36.371 48.527 36.3407 52.8384 36.3407 53.6862C36.3407 54.3582 36.8044 55.175 38.0847 54.9372C48.1653 51.5047 55 41.693 55 30.2271C55 15.8869 43.6593 5 29.6774 5ZM14.7984 40.6591C14.6673 40.7625 14.6976 41.0003 14.869 41.1967C15.0302 41.3621 15.2621 41.4345 15.3931 41.3001C15.5242 41.1967 15.494 40.9589 15.3226 40.7625C15.1613 40.597 14.9294 40.5247 14.7984 40.6591ZM13.7097 39.8216C13.6391 39.956 13.7399 40.1215 13.9415 40.2248C14.1028 40.3282 14.3044 40.2972 14.375 40.1525C14.4456 40.0181 14.3448 39.8526 14.1431 39.7493C13.9415 39.6872 13.7802 39.7182 13.7097 39.8216ZM16.9758 43.5023C16.8145 43.6367 16.875 43.9469 17.1069 44.1433C17.3387 44.3811 17.631 44.4121 17.7621 44.2467C17.8931 44.1123 17.8327 43.8021 17.631 43.6057C17.4093 43.3679 17.1069 43.3369 16.9758 43.5023ZM15.8266 41.9825C15.6653 42.0859 15.6653 42.3547 15.8266 42.5925C15.9879 42.8303 16.2601 42.9337 16.3911 42.8303C16.5524 42.6959 16.5524 42.427 16.3911 42.1893C16.25 41.9515 15.9879 41.8481 15.8266 41.9825Z" fill="#01479F"/>
</svg>
