<svg width="50" height="38" viewBox="0 0 50 38" fill="none" xmlns="http://www.w3.org/2000/svg">
<path d="M45.3125 0.25H4.6875C2.09863 0.25 0 2.34863 0 4.9375V33.0625C0 35.6514 2.09863 37.75 4.6875 37.75H45.3125C47.9014 37.75 50 35.6514 50 33.0625V4.9375C50 2.34863 47.9014 0.25 45.3125 0.25ZM45.3125 4.9375V8.92236C43.1229 10.7055 39.632 13.4781 32.1692 19.3218C30.5246 20.6154 27.2668 23.7233 25 23.6871C22.7336 23.7237 19.4747 20.6149 17.8308 19.3218C10.3691 13.479 6.87744 10.7058 4.6875 8.92236V4.9375H45.3125ZM4.6875 33.0625V14.9373C6.9252 16.7196 10.0985 19.2207 14.9354 23.0082C17.0698 24.6884 20.8078 28.3975 25 28.3749C29.1716 28.3975 32.8622 24.7422 35.0638 23.009C39.9005 19.2216 43.0747 16.7198 45.3125 14.9374V33.0625H4.6875Z" fill="#01479F"/>
</svg>
